<svg width="28" height="28" viewBox="0 0 28 28" fill="none" xmlns="http://www.w3.org/2000/svg">
<path d="M10.5007 14L12.834 16.3333L18.084 11.0833M10.7362 24.0343C11.1186 23.9838 11.5048 24.0875 11.8094 24.3221L13.2132 25.3993C13.6773 25.7558 14.3228 25.7558 14.7855 25.3993L16.2424 24.2806C16.5146 24.0719 16.8581 23.9799 17.1977 24.0253L19.0201 24.2651C19.5995 24.3416 20.1582 24.0188 20.3824 23.4783L21.0837 21.7827C21.2146 21.4652 21.466 21.2137 21.7836 21.0828L23.479 20.3815C24.0195 20.1585 24.3423 19.5985 24.2658 19.0191L24.0351 17.2627C23.9845 16.8803 24.0882 16.494 24.3228 16.1894L25.4 14.7855C25.7564 14.3215 25.7564 13.6759 25.4 13.2132L24.2814 11.7562C24.0727 11.484 23.9807 11.1404 24.026 10.8008L24.2658 8.97828C24.3423 8.39885 24.0195 7.84017 23.479 7.61591L21.7836 6.91464C21.466 6.78371 21.2146 6.53224 21.0837 6.21466L20.3824 4.51915C20.1595 3.97861 19.5995 3.65584 19.0201 3.73232L17.1977 3.97213C16.8581 4.01879 16.5146 3.92676 16.2437 3.71935L14.7868 2.60068C14.3228 2.24421 13.6773 2.24421 13.2145 2.60068L11.7576 3.71935C11.4854 3.92676 11.1419 4.01879 10.8023 3.97472L8.97987 3.73491C8.40047 3.65843 7.84181 3.9812 7.61757 4.52174L6.91763 6.21725C6.78542 6.53354 6.53396 6.78501 6.21769 6.91723L4.52227 7.61721C3.98176 7.84146 3.65901 8.40015 3.73549 8.97958L3.97528 10.8021C4.01935 11.1417 3.92732 11.4852 3.71993 11.7562L2.60132 13.2132C2.24487 13.6772 2.24487 14.3228 2.60132 14.7855L3.71993 16.2425C3.92862 16.5147 4.02065 16.8582 3.97528 17.1979L3.73549 19.0204C3.65901 19.5998 3.98176 20.1585 4.52227 20.3828L6.21769 21.0841C6.53525 21.215 6.78672 21.4665 6.91763 21.784L7.61887 23.4795C7.84181 24.0201 8.40177 24.3429 8.98116 24.2664L10.7362 24.0343Z" stroke="#079455" stroke-width="2" stroke-linecap="round" stroke-linejoin="round"/>
</svg>
