<svg width="16" height="16" viewBox="0 0 16 16" fill="none" xmlns="http://www.w3.org/2000/svg">
<g clip-path="url(#clip0_18673_1572)">
<path d="M6.06065 5.99998C6.21739 5.55442 6.52675 5.17872 6.93395 4.9394C7.34116 4.70009 7.81991 4.61261 8.28544 4.69245C8.75096 4.7723 9.1732 5.01433 9.47737 5.37567C9.78154 5.737 9.94802 6.19433 9.94732 6.66665C9.94732 7.99998 7.94732 8.66665 7.94732 8.66665M8.00065 11.3333H8.00732M14.6673 7.99998C14.6673 11.6819 11.6826 14.6666 8.00065 14.6666C4.31875 14.6666 1.33398 11.6819 1.33398 7.99998C1.33398 4.31808 4.31875 1.33331 8.00065 1.33331C11.6826 1.33331 14.6673 4.31808 14.6673 7.99998Z" stroke="#A4A7AE" stroke-width="1.33333" stroke-linecap="round" stroke-linejoin="round"/>
</g>
<defs>
<clipPath id="clip0_18673_1572">
<rect width="16" height="16" fill="white"/>
</clipPath>
</defs>
</svg>
