<svg width="20" height="20" viewBox="0 0 20 20" fill="none" xmlns="http://www.w3.org/2000/svg"><g clip-path="url(#clip0_18549_968)"><path d="M1.666 1.667h1.088c.205 0 .308 0 .39.037a.417.417 0 01.178.154c.049.077.063.178.092.381L3.81 5m0 0l.876 6.443c.112.817.167 1.226.363 1.534.172.271.419.487.71.62.332.153.745.153 1.57.153h7.131c.786 0 1.178 0 1.5-.141.282-.125.525-.326.7-.58.2-.29.273-.675.42-1.447l1.103-5.79c.052-.272.078-.408.04-.514a.416.416 0 00-.183-.221C17.942 5 17.803 5 17.527 5H3.809zm4.524 12.5a.833.833 0 11-1.667 0 .833.833 0 011.667 0zm6.666 0a.833.833 0 11-1.666 0 .833.833 0 011.666 0z" stroke="#FF9EA2" stroke-width="1.67" stroke-linecap="round" stroke-linejoin="round"/></g><defs><clipPath id="clip0_18549_968"><path fill="#fff" d="M0 0h20v20H0z"/></clipPath></defs></svg>