<svg width="28" height="28" viewBox="0 0 28 28" fill="none" xmlns="http://www.w3.org/2000/svg"><path d="M10.5 14l2.334 2.333 5.25-5.25m-7.348 12.951c.383-.05.769.053 1.073.288l1.404 1.077a1.29 1.29 0 001.573 0l1.456-1.118c.273-.21.616-.301.956-.256l1.822.24a1.292 1.292 0 001.362-.787l.702-1.695c.13-.318.382-.57.7-.7l1.695-.701c.54-.224.863-.784.787-1.363l-.23-1.756c-.052-.383.052-.769.287-1.074l1.077-1.403a1.29 1.29 0 000-1.573l-1.119-1.457a1.29 1.29 0 01-.255-.955l.24-1.823a1.292 1.292 0 00-.787-1.362l-1.695-.701a1.287 1.287 0 01-.7-.7l-.702-1.696a1.291 1.291 0 00-1.362-.787l-1.822.24a1.283 1.283 0 01-.954-.253l-1.457-1.118a1.29 1.29 0 00-1.573 0l-1.456 1.118a1.3 1.3 0 01-.956.256l-1.822-.24a1.292 1.292 0 00-1.362.787l-.7 1.695a1.304 1.304 0 01-.7.7l-1.696.7c-.54.224-.863.783-.787 1.363l.24 1.822c.044.34-.048.683-.255.954L2.6 13.213a1.29 1.29 0 000 1.573l1.119 1.457c.209.272.3.615.255.955l-.24 1.822c-.076.58.247 1.139.787 1.363l1.696.701c.317.131.569.383.7.7l.7 1.696c.224.54.784.863 1.363.786l1.755-.232z" stroke="#079455" stroke-width="2" stroke-linecap="round" stroke-linejoin="round"/></svg>